# xmcd CD database file
#
# Track frame offsets:
#	150
#	16687
#	34965
#	53205
#	71685
#	88472
#	107527
#	129242
#	138050
#	149722
#	166800
#	186767
#	204722
#	225670
#
# Disc length: 3283 seconds
#
# Revision: 0
# Processed by: cddbd v1.5.1PL0 Copyright (c) Steve Scherf et al.
# Submitted via: CDex 1.51
#
DISCID=c30cd10e
DTITLE=Triangle Below Canal Street - Triangle Below Canal Street
DYEAR=2002
DGENRE=Rock
TTITLE0=Baby Driver
TTITLE1=Ghost Train
TTITLE2=「イノチのコトバ」
TTITLE3=Crazy
TTITLE4=フレア
TTITLE5=Mr.R
TTITLE6=最後のわがまま
TTITLE7=No Spirit
TTITLE8=Triangle Below Canal Street
TTITLE9=月にお願い
TTITLE10=Double Face
TTITLE11=Superb Bang!!!
TTITLE12=Light And Shadow
TTITLE13=Shades Of Love
EXTD=YEAR: 2002
EXTT0=
EXTT1=
EXTT2=
EXTT3=
EXTT4=
EXTT5=
EXTT6=
EXTT7=
EXTT8=
EXTT9=
EXTT10=
EXTT11=
EXTT12=
EXTT13=
PLAYORDER=
